<svg xmlns="http://www.w3.org/2000/svg" viewBox="0 0 25.13 25.16"><defs><style>.cls-1{fill:#265fbf;}</style></defs><title>Attendance Management</title><g id="Layer_2" data-name="Layer 2"><g id="Layer_1-2" data-name="Layer 1"><path class="cls-1" d="M5,0A1.26,1.26,0,0,0,3.77,1.27h0V2.54H1.13A1.27,1.27,0,0,0,0,3.79V23.91a1.25,1.25,0,0,0,1.25,1.25H23.88a1.25,1.25,0,0,0,1.25-1.25V3.79a1.25,1.25,0,0,0-1.25-1.25H21.37V1.28A1.26,1.26,0,0,0,20.13,0h0a1.25,1.25,0,0,0-1.24,1.28h0V2.54H6.28V1.28A1.26,1.26,0,0,0,5.05,0ZM2.52,5.06h20.1V7.57H2.52Zm0,5h20.1V22.65H2.52ZM4.9,11.34A1.26,1.26,0,1,0,5,13.85H7.54a1.26,1.26,0,1,0,0-2.51H4.9Zm6.29,0a1.26,1.26,0,1,0,.12,2.51h2.51a1.26,1.26,0,1,0,0-2.51H11.19Zm6.28,0a1.26,1.26,0,1,0,.12,2.51H20.1a1.26,1.26,0,1,0,0-2.51H17.47ZM5,15.1a1.26,1.26,0,0,0,0,2.52H7.54A1.26,1.26,0,0,0,7.6,15.1H5Zm6.28,0a1.26,1.26,0,0,0,0,2.52h2.51a1.26,1.26,0,0,0,.06-2.52H11.31Zm6.28,0a1.26,1.26,0,0,0,0,2.52H20.1a1.26,1.26,0,1,0,.06-2.52H17.59ZM4.9,18.88A1.26,1.26,0,0,0,5,21.39H7.54a1.26,1.26,0,0,0,0-2.51H4.9Zm6.29,0a1.26,1.26,0,0,0,.12,2.51h2.51a1.26,1.26,0,0,0,0-2.51H11.19Z"/></g></g></svg>