<svg xmlns="http://www.w3.org/2000/svg" viewBox="0 0 1080 1080"><defs><style>.cls-1{fill:#fff;}.cls-2{fill:#06c;}</style></defs><title>be</title><g id="Layer_2" data-name="Layer 2"><g id="Layer_1-2" data-name="Layer 1"><rect class="cls-1" width="1080" height="1080"/><path class="cls-2" d="M388.26,589V489h45.11q17.5,0,26.62,9.95,8,8.55,8,22.14t-8,22.13q-9.11,9.94-26.62,9.95H410.26V589Zm22-82.93v30h17.09q9,0,13.44-2.65,5.88-3.64,5.89-12.33t-5.89-12.34q-4.49-2.64-13.44-2.65Z"/><path class="cls-2" d="M476.38,589V516.61h18.91v13.46h.27A23.58,23.58,0,0,1,504.81,519a24.92,24.92,0,0,1,13.88-4.33,14.17,14.17,0,0,1,4.34.69v18.49a32.41,32.41,0,0,0-7.15-.69q-19.61,0-19.61,23.24V589Z"/><path class="cls-2" d="M527.93,552.9q0-17.37,10.23-27.82t27.18-10.42q17.08,0,27.32,10.42t10.22,27.82q0,17.24-10.22,27.66T565.34,591q-17,0-27.18-10.43T527.93,552.9Zm19.89,0q0,9.95,3.79,15.83Q556.1,576,565.34,576,583,576,583,552.9t-17.65-23.26Q547.83,529.64,547.82,552.9Z"/><path class="cls-2" d="M613.24,589V489h43.14q20.31,0,32.37,12.34,13,13,13,37.11,0,22.69-11.21,36.14Q678.52,589,656.38,589Zm22-81.54v63h19.6q10.65,0,17.24-6.72,7.71-7.85,7.71-23.27,0-16.09-6.17-24.08-7-9-22.7-9Z"/><path class="cls-2" d="M779,557.67H726.72Q727.58,576,744.51,576a18.21,18.21,0,0,0,10.37-3.08c2.9-1.78,4.67-3.88,5.33-6.31h17.5q-8,24.39-33.89,24.37-17,0-27-10.56t-10-27.53c0-11,3.43-20.16,10.3-27.38s15.76-10.86,26.69-10.86q17.64,0,27.31,13.16Q780.1,539.88,779,557.67Zm-52.26-12.62h32.36q-2.79-15.4-15.83-15.41-8.4,0-12.88,5.61A16.59,16.59,0,0,0,726.72,545.05Z"/><path class="cls-2" d="M850.7,516.61,826.18,589H804l-24.79-72.43h20.87l15.27,49.45h.28L831,516.61Z"/><path class="cls-2" d="M850.84,565.5h18.91a11,11,0,0,0,4.76,9.38c2.71,1.89,6.21,2.82,10.51,2.82a17.7,17.7,0,0,0,8.69-2,8,8,0,0,0,4.34-7.29c0-2.79-2-5.05-5.89-6.72q-4.2-1.82-16.67-4.48-10.63-2.25-15.83-5.88a15.26,15.26,0,0,1-7.14-13.46q0-23.25,31.52-23.24,30,0,31.93,23.11h-18.9c-.48-6.55-5-9.8-13.59-9.8-7.38,0-11.07,2.23-11.07,6.72q0,4.62,7,7.13.86.3,15.56,3.64,10.77,2.53,15.82,6.18a16.3,16.3,0,0,1,7.15,14.14q0,13.17-10.37,19.75Q899,591,884.88,591t-23-5.59Q851.4,578.83,850.84,565.5Z"/><path class="cls-2" d="M290.24,549.39a4.89,4.89,0,0,0,5.85,4.83c16.11-3.23,59.63-15.94,54.52-58.54-3.34-24.78-41-30.23-55.09-31.4a4.89,4.89,0,0,0-5.28,4.9Z"/><path class="cls-2" d="M259.35,448.42l-88.13-41.1a4.92,4.92,0,0,0-7,4.42l-2.17,256.44a4.92,4.92,0,0,0,7,4.5l90.3-42.11a4.92,4.92,0,0,0,2.84-4.45V452.87A4.92,4.92,0,0,0,259.35,448.42Zm-73.86,105.9a11.65,11.65,0,1,1,11.65-11.65A11.66,11.66,0,0,1,185.49,554.32Z"/></g></g></svg>