<svg xmlns="http://www.w3.org/2000/svg" viewBox="0 0 26.62 26.65"><defs><style>.cls-1{fill:#265fbf;fill-rule:evenodd;}</style></defs><title>Performance Tracker</title><g id="Layer_2" data-name="Layer 2"><g id="Layer_1-2" data-name="Layer 1"><path class="cls-1" d="M19.74,5.38a31.5,31.5,0,0,1-2,6.56,8.38,8.38,0,0,1,.55,3,8.55,8.55,0,0,1-2,5.45,1.1,1.1,0,0,1,.06.26l.06.43c3.37-3,6.2-7.63,7.23-14.71l2.92.9L23,0,16.24,4.66ZM8.1,23.32c-.41.26-.84.5-1.28.74a.88.88,0,0,1-.21.12A28.44,28.44,0,0,1,0,26.62a25,25,0,0,0,12.49-2.77,1,1,0,0,1-.24-.62v-.1a8.73,8.73,0,0,1-2.47.36A8.37,8.37,0,0,1,8.1,23.32ZM9.77,7.52A7.44,7.44,0,1,1,2.34,15,7.44,7.44,0,0,1,9.77,7.52Zm5.86,15.63H13.35l-.07-1a8.07,8.07,0,0,0,2-1.36Zm-9.43,0H3.92l.3-2.34a8.31,8.31,0,0,0,2.05,1.36ZM4.79,7.58l.52.52-.57.56-.52-.51-.41.41-.65-.65a.36.36,0,0,1,0-.49l.93-.93a.36.36,0,0,1,.49,0l.65.66Zm10,0-.52.52.57.56.51-.51.42.41.65-.65a.36.36,0,0,0,0-.49l-.93-.93a.36.36,0,0,0-.49,0l-.65.66ZM7.87,4.48h3.81V5.87h-1V7.12H8.88V5.87h-1ZM9.53,9.13H10v1H9.53Zm4.2,8h0a.41.41,0,0,1-.55.17L10.77,16a1.43,1.43,0,1,1-1.39-2.39V11.39a.41.41,0,0,1,.82,0V13.6a1.42,1.42,0,0,1,1,1.35,1.39,1.39,0,0,1,0,.3l2.4,1.29A.41.41,0,0,1,13.73,17.09Zm-3.68-1.51h.27v0h.07l0,0h0v0h0a.7.7,0,0,0-.26-.47H9.38a.69.69,0,0,0,.39,1.26A.64.64,0,0,0,10.05,15.58ZM9.77,8.8A6.15,6.15,0,1,1,3.62,15,6.15,6.15,0,0,1,9.77,8.8Z"/></g></g></svg>