<svg xmlns="http://www.w3.org/2000/svg" viewBox="0 0 31.88 23.5"><defs><style>.cls-1{fill:#265fbf;}</style></defs><title>Recruitment</title><g id="Layer_2" data-name="Layer 2"><g id="Layer_1-2" data-name="Layer 1"><path class="cls-1" d="M29.74,16.81h-1.5a.45.45,0,0,0-.4.2l-1.6,2-1.59-2a.62.62,0,0,0-.4-.2h-.7c.05.25,0,.1,0,5.64a2.28,2.28,0,0,1-.25,1H31a.9.9,0,0,0,.9-.9V19A2.14,2.14,0,0,0,29.74,16.81Z"/><path class="cls-1" d="M8,16.81c-.15,0-.5-.1-.7.2L5.69,19l-1.6-2a.62.62,0,0,0-.4-.2H2.2A2.22,2.22,0,0,0,0,19v3.54a.9.9,0,0,0,.9.9H8.23a2.28,2.28,0,0,1-.25-1C7.93,16.86,7.93,17.11,8,16.81Z"/><path class="cls-1" d="M5.69,10.23a2.88,2.88,0,0,0-2.85,2.84,2.85,2.85,0,0,0,2.85,2.85,2.82,2.82,0,0,0,2.84-2.85A2.91,2.91,0,0,0,5.69,10.23Z"/><path class="cls-1" d="M20.06,14.62h-1.8a.45.45,0,0,0-.4.2l-2,2.54-2.05-2.54a.62.62,0,0,0-.4-.2H11.53a2.61,2.61,0,0,0-2.6,2.59V22.5a1,1,0,0,0,1,1H21.65a1,1,0,0,0,1-1V17.21A2.64,2.64,0,0,0,20.06,14.62Zm-3.79,6.44h-1v-1h1Z"/><path class="cls-1" d="M26.29,15.92a2.85,2.85,0,0,0,2.85-2.85,2.85,2.85,0,0,0-5.69,0A2.85,2.85,0,0,0,26.29,15.92Z"/><path class="cls-1" d="M15.77,11.63a2.85,2.85,0,0,0,2.84-2.85,2.81,2.81,0,0,0-2.84-2.84,2.85,2.85,0,1,0,0,5.69Z"/><path class="cls-1" d="M11.13,6.34a5.15,5.15,0,0,0-.6,2.44,5.27,5.27,0,1,0,5.24-5.29,5.08,5.08,0,0,0-2.45.6L9.68.45a1.57,1.57,0,0,0-2.2,0,1.58,1.58,0,0,0,0,2.19Zm4.64-1.8a4.29,4.29,0,0,1,0,8.58,4.29,4.29,0,0,1,0-8.58Z"/></g></g></svg>