<svg xmlns="http://www.w3.org/2000/svg" viewBox="0 0 32 32.1"><defs><style>.cls-1{fill:#265fbf;}</style></defs><title>System Administration &amp;amp; User Roles</title><g id="Layer_2" data-name="Layer 2"><g id="Layer_1-2" data-name="Layer 1"><path class="cls-1" d="M31.5,23.84l-1.4-.2a5.61,5.61,0,0,0-.25-.65l.85-1.11a.47.47,0,0,0-.05-.65l-1.4-1.4a.48.48,0,0,0-.66,0l-1.1.85a2.51,2.51,0,0,0-.65-.25l-.2-1.4a.53.53,0,0,0-.5-.45h-.55v-1.9a.54.54,0,0,0-.5-.5H16.43v-.86A7.64,7.64,0,0,0,15.92,0,7.7,7.7,0,0,0,8.26,7.66a7.74,7.74,0,0,0,7.16,7.66v.86H6.71a.5.5,0,0,0-.5.5v1.85h-.4a.53.53,0,0,0-.5.45l-.2,1.4c-.2.1-.4.15-.65.25l-1.1-.85a.48.48,0,0,0-.66,0l-1.4,1.4a.47.47,0,0,0-.05.65L2.1,23a2.51,2.51,0,0,0-.25.65l-1.4.2a.53.53,0,0,0-.45.5v1.95a.53.53,0,0,0,.45.5l1.4.2a5.61,5.61,0,0,0,.25.65l-.85,1.1a.48.48,0,0,0,.05.66l1.4,1.4a.48.48,0,0,0,.66.05L4.46,30a2.51,2.51,0,0,0,.65.25l.2,1.4a.53.53,0,0,0,.5.45h2a.53.53,0,0,0,.5-.45l.2-1.4A5.61,5.61,0,0,0,9.11,30l1.11.85a.47.47,0,0,0,.65-.05l1.4-1.4a.48.48,0,0,0,.05-.66l-.85-1.1a2.51,2.51,0,0,0,.25-.65l1.4-.2a.53.53,0,0,0,.45-.5V24.34a.53.53,0,0,0-.45-.5l-1.4-.2a5.61,5.61,0,0,0-.25-.65l.85-1.11a.47.47,0,0,0-.05-.65l-1.4-1.4a.47.47,0,0,0-.65,0l-1.11.85a2.51,2.51,0,0,0-.65-.25L8.26,19a.53.53,0,0,0-.5-.45H7.21v-1.4H24.64v1.4h-.4a.53.53,0,0,0-.5.45l-.2,1.4c-.2.1-.4.15-.65.25l-1.11-.85a.47.47,0,0,0-.65,0l-1.4,1.4a.47.47,0,0,0-.05.65L20.53,23a2.51,2.51,0,0,0-.25.65l-1.4.2a.53.53,0,0,0-.45.5v1.95a.53.53,0,0,0,.45.5l1.4.2a5.61,5.61,0,0,0,.25.65l-.85,1.1a.48.48,0,0,0,.05.66l1.4,1.4a.47.47,0,0,0,.65.05L22.89,30a2.51,2.51,0,0,0,.65.25l.2,1.4a.53.53,0,0,0,.5.45h2a.53.53,0,0,0,.5-.45l.2-1.4a5.61,5.61,0,0,0,.65-.25l1.1.85a.48.48,0,0,0,.66-.05l1.4-1.4a.48.48,0,0,0,.05-.66l-.85-1.1a2.51,2.51,0,0,0,.25-.65l1.4-.2a.53.53,0,0,0,.45-.5V24.34A.54.54,0,0,0,31.5,23.84ZM8.61,25.29a1.85,1.85,0,1,1-1.85-1.85A1.88,1.88,0,0,1,8.61,25.29ZM12.17,5.86a6.76,6.76,0,0,0,1.3,3.65,7.07,7.07,0,0,0-2.4,1.26,2.63,2.63,0,0,0-.6.7A6.76,6.76,0,0,1,9.26,7.66a6.67,6.67,0,0,1,13.33,0,6.76,6.76,0,0,1-1.21,3.81,2.63,2.63,0,0,0-.6-.7,7.07,7.07,0,0,0-2.4-1.26,6.55,6.55,0,0,0,1.25-3.65A3.79,3.79,0,0,0,15.87,2.1,3.71,3.71,0,0,0,12.17,5.86Zm13,21.28a1.88,1.88,0,0,1-1.85-1.85,1.85,1.85,0,0,1,1.85-1.85,1.85,1.85,0,0,1,0,3.7Z"/></g></g></svg>